<svg id="Layer_1" data-name="Layer 1" xmlns="http://www.w3.org/2000/svg" viewBox="0 0 471.15 63.85"><defs><style>.cls-1{fill:#093451}</style></defs><title>Benzinga Logo_pitchdeck</title><path class="cls-1" d="M67.7 63.85h45.2V51.93H81.36V37.31h26.15V25.38H81.36V11.92h31.73V0H67.7v63.85zm99.62-23.66L137.71 0h-20.39l6.35 8.08v55.97h13.65V22.12l30.58 41.73h13.08V0h-13.66v40.19zM47.12 31c6-1.15 11-6.73 11-14.61C58.08 7.88 51.93 0 39.62 0H0l6.15 7.88v56H41c12.32 0 18.66-7.69 18.66-17.31C59.43 38.66 54 31.93 47.12 31zM19.81 12h17.12c4.62 0 7.5 2.7 7.5 6.73s-2.88 6.73-7.5 6.73H19.81zM37.5 52H19.81V37.31H37.5c5.2 0 8.08 3.27 8.08 7.31 0 4.61-3.08 7.31-8.08 7.31zm343.31-11.81h7.12v7.51a20.9 20.9 0 0 1-13.08 4.8c-11.35 0-19.42-8.65-19.42-20.38s8.07-20.39 19.42-20.39a17.53 17.53 0 0 1 14.62 8.08l10.77-6C395.63 6.54 387.54 0 374.66 0c-18.08 0-33.08 12.5-33.08 31.93s14.81 31.92 33.08 31.92a34.12 34.12 0 0 0 26.15-11.54V28.66h-29.23zm-61.54 0L289.65 0h-20.39l6.35 8.08v55.97h13.66V22.12l30.58 41.73h13.07V0h-13.65v40.19zM446 0h-26.34L426 8.08l-1.15 3.07-20.39 52.9h15.39l4-10.78h27.55l4 10.78h15.38zm-18.64 41.16l10-27.51 10 27.51h-20zM247.72 0h13.66v64.05h-13.66zm-10.96 10.96V0h-48.09v11.92h30.2l-30.2 40.97v10.96h48.67V51.93h-30.97l30.39-40.97z"/></svg>